<svg width="71" height="49" viewBox="0 0 71 49" fill="none" xmlns="http://www.w3.org/2000/svg">
<path d="M70.8 23.2C70.8 10.4 55 0 35.4 0C15.9 0 0 10.4 0 23.2C0 23.5 0 24.4 0 24.6C0 38 13.9 49 35.4 49C57.1 49 70.8 38 70.8 24.5V23.2Z" fill="#27357D"/>
<path d="M69.4 23.1C69.4 35.1 54.2 44.9 35.4 44.9C16.6 44.9 1.39999 35.2 1.39999 23.1C1.39999 11 16.6 1.3 35.4 1.3C54.2 1.3 69.4 11.1 69.4 23.1Z" fill="#FFCE05"/>
<path d="M24.1 16.3C24.1 16.3 23.7 16.7 24 17C24.5 17.7 26.2 18.1 27.9 17.7C28.9 17.5 30.2 16.5 31.4 15.5C32.7 14.4 34.1 13.4 35.4 12.9C36.8 12.4 37.7 12.6 38.3 12.8C39 13 39.7 13.4 41 14.4C43.3 16.2 52.7 24.3 54.3 25.7C55.6 25.1 61.4 22.6 69.3 20.9C68.6 16.7 66.1 12.9 62.2 9.7C56.8 12 50.2 13.1 43.8 10C43.8 10 40.3 8.3 36.8 8.4C31.7 8.5 29.5 10.7 27.1 13.1L24.1 16.3Z" fill="white"/>
<path d="M53.9 26.6C53.8 26.5 42.9 17 40.4 15.1C39 14 38.2 13.8 37.3 13.6C36.9 13.5 36.3 13.6 35.8 13.7C34.7 14 33.1 15 31.8 16.1C30.4 17.2 29.1 18.2 27.9 18.5C26.4 18.8 24.5 18.4 23.6 17.9C23.2 17.7 23 17.4 22.9 17.1C22.6 16.4 23.2 15.8 23.3 15.7L26.3 12.5C26.7 12.1 27 11.8 27.4 11.5C26.4 11.6 25.5 11.9 24.7 12.1C23.6 12.4 22.6 12.7 21.5 12.7C21.1 12.7 18.7 12.3 18.2 12.2C15.5 11.5 13.1 10.7 9.5 9.1C5.2 12.3 2.4 16.3 1.5 20.6C2.1 20.8 3.1 21.1 3.5 21.2C13.2 23.3 16.2 25.6 16.7 26C17.3 25.3 18.1 24.9 19.1 24.9C20.2 24.9 21.1 25.4 21.7 26.3C22.3 25.9 23 25.5 24 25.5C24.5 25.5 24.9 25.6 25.4 25.7C26.5 26.1 27.1 26.8 27.3 27.5C27.7 27.3 28.1 27.2 28.6 27.2C29.1 27.2 29.7 27.3 30.2 27.6C32 28.4 32.3 30.1 32.1 31.4C32.2 31.4 32.4 31.4 32.5 31.4C34.6 31.4 36.3 33.1 36.3 35.2C36.3 35.9 36.1 36.5 35.8 37C36.4 37.3 37.8 38.1 39.1 37.9C40.1 37.8 40.5 37.4 40.7 37.2C40.8 37.1 40.9 36.9 40.8 36.8L38.1 33.8C38.1 33.8 37.6 33.4 37.8 33.2C38 33 38.2 33.3 38.4 33.4C39.8 34.6 41.5 36.3 41.5 36.3C41.5 36.3 41.6 36.5 42.3 36.7C42.8 36.8 43.8 36.7 44.5 36.2C44.7 36.1 44.8 35.9 45 35.7C45.7 34.8 44.9 33.9 44.9 33.9L41.7 30.3C41.7 30.3 41.2 29.9 41.4 29.7C41.5 29.6 41.8 29.8 42 29.9C43 30.7 44.4 32.2 45.8 33.5C46.1 33.7 47.3 34.4 48.9 33.4C49.9 32.8 50.1 32 50 31.4C49.9 30.6 49.3 30.1 49.3 30.1L44.9 25.7C44.9 25.7 44.4 25.3 44.6 25.1C44.7 24.9 45 25.2 45.2 25.3C46.6 26.5 50.3 29.9 50.3 29.9C50.4 29.9 51.7 30.9 53.3 29.8C53.9 29.4 54.2 28.9 54.3 28.2C54.7 27.2 53.9 26.6 53.9 26.6Z" fill="white"/>
<path d="M32.8 32.1C32.1 32.1 31.4 32.5 31.3 32.4C31.2 32.4 31.3 32.1 31.4 31.9C31.5 31.7 32.4 29.1 30.2 28.1C28.5 27.4 27.5 28.2 27.2 28.6C27.1 28.7 27.1 28.7 27.1 28.6C27.1 28.1 26.8 26.8 25.4 26.4C23.4 25.8 22 27.2 21.7 27.7C21.5 26.5 20.6 25.6 19.4 25.6C18.1 25.6 17 26.7 17 28C17 29.3 18.1 30.4 19.4 30.4C20 30.4 20.6 30.1 21 29.7C21 29.7 21 29.7 21 29.8C20.9 30.4 20.7 32.5 22.9 33.4C23.8 33.8 24.6 33.5 25.2 33C25.4 32.9 25.4 32.9 25.4 33.1C25.3 33.7 25.4 34.8 27.1 35.5C28.4 36 29.1 35.5 29.6 35C29.8 34.8 29.9 34.8 29.9 35.1C30 36.7 31.3 38 32.9 38C34.6 38 35.9 36.7 35.9 35C35.8 33.4 34.4 32.1 32.8 32.1Z" fill="white"/>
<path d="M54.3 25.4C50.9 22.5 43.2 15.7 41.1 14.1C39.9 13.2 39.1 12.7 38.4 12.5C38.1 12.4 37.6 12.3 37.1 12.3C36.6 12.3 36 12.4 35.4 12.6C34 13 32.7 14.1 31.4 15.1L31.3 15.2C30.1 16.2 28.8 17.2 27.9 17.4C27.5 17.5 27.1 17.5 26.6 17.5C25.5 17.5 24.6 17.2 24.2 16.7C24.1 16.6 24.2 16.5 24.3 16.3L27.3 13.1C29.6 10.8 31.8 8.6 36.8 8.5C36.9 8.5 37 8.5 37.1 8.5C40.2 8.5 43.4 9.9 43.7 10.1C46.6 11.5 49.7 12.3 52.7 12.3C55.9 12.3 59.2 11.5 62.6 9.9C62.2 9.6 61.8 9.3 61.4 9C58.4 10.3 55.5 11 52.7 11C49.9 11 47 10.3 44.3 9C44.1 8.9 40.7 7.3 37.1 7.3C37 7.3 36.9 7.3 36.8 7.3C32.6 7.4 30.2 8.9 28.6 10.2C27 10.2 25.7 10.6 24.5 10.9C23.4 11.2 22.5 11.5 21.6 11.5C21.2 11.5 20.6 11.5 20.5 11.5C19.5 11.5 14.3 10.2 10.1 8.6C9.69999 8.9 9.29999 9.2 8.89999 9.5C13.2 11.3 18.5 12.6 20.1 12.7C20.6 12.7 21.1 12.8 21.5 12.8C22.6 12.8 23.7 12.5 24.8 12.2C25.4 12 26.1 11.8 26.8 11.7C26.6 11.9 26.4 12.1 26.2 12.3L23.2 15.5C23 15.7 22.5 16.4 22.8 17.2C22.9 17.5 23.2 17.8 23.6 18.1C24.3 18.6 25.6 18.9 26.8 18.9C27.3 18.9 27.7 18.9 28.1 18.8C29.4 18.5 30.7 17.5 32.1 16.4C33.2 15.5 34.8 14.4 36 14.1C36.3 14 36.8 13.9 37.1 13.9C37.2 13.9 37.3 13.9 37.4 13.9C38.2 14 39 14.3 40.4 15.3C42.9 17.2 53.8 26.7 53.9 26.8C53.9 26.8 54.6 27.4 54.5 28.4C54.5 29 54.2 29.4 53.6 29.8C53.1 30.1 52.7 30.2 52.2 30.2C51.5 30.2 51 29.9 50.9 29.8C50.9 29.8 47.1 26.3 45.8 25.2C45.6 25 45.4 24.9 45.2 24.9C45.1 24.9 45 24.9 44.9 25C44.7 25.3 44.9 25.6 45.2 25.9L49.6 30.3C49.6 30.3 50.1 30.8 50.2 31.5C50.2 32.2 49.9 32.8 49.2 33.3C48.7 33.6 48.2 33.8 47.7 33.8C47 33.8 46.6 33.5 46.5 33.4L45.9 32.8C44.8 31.7 43.6 30.5 42.7 29.8C42.5 29.6 42.3 29.5 42.1 29.5C42 29.5 41.9 29.5 41.8 29.6C41.7 29.7 41.6 29.9 41.9 30.2C42 30.3 42.1 30.4 42.1 30.4L45.3 34C45.3 34 46 34.8 45.4 35.5L45.3 35.6C45.2 35.7 45.1 35.8 45 35.9C44.5 36.3 43.7 36.4 43.4 36.4C43.2 36.4 43.1 36.4 43 36.4C42.7 36.3 42.5 36.3 42.4 36.1C42.2 35.9 40.6 34.3 39.3 33.2C39.1 33.1 38.9 32.9 38.7 32.9C38.6 32.9 38.5 32.9 38.4 33C38.1 33.3 38.5 33.7 38.7 33.9L41.4 36.9C41.4 36.9 41.4 37 41.3 37.1C41.2 37.2 40.9 37.6 39.9 37.7C39.8 37.7 39.7 37.7 39.5 37.7C38.5 37.7 37.4 37.2 36.8 36.9C37.1 36.4 37.2 35.8 37.2 35.2C37.2 33 35.4 31.1 33.1 31.1H33C33.1 30.1 32.9 28.1 30.9 27.3C30.3 27.1 29.8 26.9 29.2 26.9C28.8 26.9 28.4 27 28 27.1C27.6 26.3 26.9 25.7 26 25.4C25.5 25.2 25 25.1 24.5 25.1C23.7 25.1 22.9 25.3 22.2 25.8C21.6 25 20.6 24.5 19.5 24.5C18.6 24.5 17.7 24.9 17.1 25.5C16 25 12.7 22.8 3.7 20.8C3.3 20.7 2.3 20.4 1.7 20.2C1.6 20.7 1.5 21.2 1.5 21.7C1.5 21.7 3.2 22.1 3.5 22.2C12.7 24.2 15.7 26.4 16.2 26.7C16 27.1 15.9 27.6 15.9 28C15.9 29.9 17.4 31.4 19.3 31.4C19.5 31.4 19.7 31.4 19.9 31.3C20.2 32.7 21.1 33.7 22.5 34.3C22.9 34.5 23.3 34.5 23.7 34.5C24 34.5 24.2 34.5 24.5 34.4C24.8 35 25.3 35.9 26.6 36.4C27.1 36.6 27.5 36.7 28 36.7C28.4 36.7 28.7 36.6 29 36.5C29.6 38 31.1 39 32.7 39C33.8 39 34.8 38.6 35.6 37.8C36.2 38.2 37.6 38.8 39 38.8C39.2 38.8 39.4 38.8 39.5 38.8C40.9 38.6 41.5 38.1 41.8 37.7C41.9 37.6 41.9 37.5 41.9 37.5C42.2 37.6 42.6 37.7 43 37.7C43.8 37.7 44.5 37.4 45.2 36.9C45.9 36.4 46.4 35.6 46.5 35C46.7 35.1 47 35.1 47.2 35.1C48 35.1 48.7 34.9 49.5 34.4C50.9 33.5 51.2 32.3 51.1 31.5C51.3 31.6 51.6 31.6 51.8 31.6C52.5 31.6 53.3 31.4 53.9 30.9C54.8 30.3 55.3 29.5 55.4 28.5C55.5 27.8 55.3 27.1 54.9 26.6C57.3 25.6 62.7 23.6 69 22.2C69 21.7 68.9 21.2 68.8 20.7C61.5 22.3 55.8 24.8 54.3 25.4ZM32.8 37.9C31.3 37.9 30.1 36.7 30 35.3C30 35.2 30 34.8 29.7 34.8C29.6 34.8 29.5 34.9 29.4 35C29.1 35.3 28.7 35.6 28 35.6C27.7 35.6 27.4 35.5 27.1 35.4C25.5 34.8 25.5 33.7 25.6 33.2C25.6 33.1 25.6 33 25.5 32.9L25.4 32.8H25.3C25.2 32.8 25.1 32.8 25 32.9C24.5 33.2 24.1 33.4 23.7 33.4C23.5 33.4 23.2 33.4 23 33.3C20.9 32.5 21.1 30.5 21.2 29.9C21.2 29.8 21.2 29.7 21.1 29.6L21 29.5L20.9 29.6C20.5 30 20 30.2 19.4 30.2C18.2 30.2 17.2 29.2 17.2 28C17.2 26.8 18.2 25.8 19.4 25.8C20.5 25.8 21.4 26.6 21.5 27.7L21.6 28.3L21.9 27.8C21.9 27.7 22.8 26.4 24.4 26.4C24.7 26.4 25 26.4 25.3 26.5C26.6 26.9 26.8 28.1 26.8 28.5C26.8 28.8 27 28.8 27.1 28.8C27.2 28.8 27.3 28.7 27.4 28.7C27.6 28.4 28.2 28 29 28C29.4 28 29.8 28.1 30.2 28.3C32.2 29.2 31.3 31.8 31.3 31.8C31.1 32.2 31.1 32.4 31.3 32.5H31.4H31.5C31.6 32.5 31.7 32.5 31.9 32.4C32.2 32.3 32.6 32.2 33 32.2C34.5 32.2 35.8 33.5 35.8 35C35.6 36.6 34.3 37.9 32.8 37.9Z" fill="#27357D"/>
</svg>
