<svg width="29" height="25" viewBox="0 0 29 25" fill="none" xmlns="http://www.w3.org/2000/svg">
<path fill-rule="evenodd" clip-rule="evenodd" d="M15.6864 9.28001C15.6864 12.2697 13.099 14.6933 9.9072 14.6933C6.71544 14.6933 4.128 12.2697 4.128 9.28001C4.128 6.2903 6.71544 3.86667 9.9072 3.86667C13.099 3.86667 15.6864 6.2903 15.6864 9.28001ZM15.4503 16.9727C13.8684 17.9748 11.9607 18.56 9.9072 18.56C4.4356 18.56 0 14.4052 0 9.28001C0 4.1548 4.4356 0 9.9072 0C15.3788 0 19.8144 4.1548 19.8144 9.28001C19.8144 10.6483 19.4982 11.9475 18.9306 13.1169L27.9677 20.2198C29.1902 21.1807 29.3497 22.888 28.3239 24.0331C27.2981 25.1782 25.4755 25.3276 24.2529 24.3667L15.2004 17.2516L15.4503 16.9727Z" fill="black"/>
</svg>
